<?xml version="1.0" encoding="UTF-8"?>
<!DOCTYPE svg PUBLIC "-//W3C//DTD SVG 1.1//EN" "http://www.w3.org/Graphics/SVG/1.1/DTD/svg11.dtd">
<svg xmlns="http://www.w3.org/2000/svg" version="1.1" width="139px" height="132px" style="shape-rendering:geometricPrecision; text-rendering:geometricPrecision; image-rendering:optimizeQuality; fill-rule:evenodd; clip-rule:evenodd" xmlns:xlink="http://www.w3.org/1999/xlink">
<g><path style="opacity:0.596" fill="#f3f1f1" d="M 74.5,5.5 C 77.1667,6.16667 78.8333,7.83333 79.5,10.5C 77.5,9.16667 75.8333,7.5 74.5,5.5 Z"/></g>
<g><path style="opacity:1" fill="#5e3b3e" d="M 74.5,5.5 C 75.8333,7.5 77.5,9.16667 79.5,10.5C 83.4881,19.9066 81.8215,28.0733 74.5,35C 72.7412,35.7975 71.0745,35.6309 69.5,34.5C 68.6389,32.0894 67.3056,30.0894 65.5,28.5C 65.7869,26.8793 66.7869,25.8793 68.5,25.5C 69.7661,27.7098 71.2661,29.7098 73,31.5C 76.779,29.112 78.6124,25.612 78.5,21C 78.7934,17.0204 77.46,13.8537 74.5,11.5C 72.2127,7.94774 68.8794,6.28107 64.5,6.5C 61.2738,6.34845 58.6071,7.34845 56.5,9.5C 55.8333,10.8333 54.8333,11.8333 53.5,12.5C 52.2153,14.0622 50.7153,15.3955 49,16.5C 48.5,16.1667 48,15.8333 47.5,15.5C 53.176,3.50418 62.176,0.170848 74.5,5.5 Z"/></g>
<g><path style="opacity:0.249" fill="#f7f5f5" d="M 74.5,11.5 C 71.6351,9.20693 68.3018,7.87359 64.5,7.5C 61.7666,7.96801 59.1,8.63468 56.5,9.5C 58.6071,7.34845 61.2738,6.34845 64.5,6.5C 68.8794,6.28107 72.2127,7.94774 74.5,11.5 Z"/></g>
<g><path style="opacity:0.149" fill="#f9f3ec" d="M 74.5,5.5 C 62.176,0.170848 53.176,3.50418 47.5,15.5C 48,15.8333 48.5,16.1667 49,16.5C 50.7153,15.3955 52.2153,14.0622 53.5,12.5C 52.5868,14.0861 52.5868,15.5861 53.5,17C 57.4087,17.6327 61.0753,18.7994 64.5,20.5C 62.1918,22.4707 59.8585,24.4707 57.5,26.5C 56.2642,24.9572 54.5976,23.9572 52.5,23.5C 51.7025,23.9569 51.3691,24.6236 51.5,25.5C 50.5326,24.1938 49.1993,23.5271 47.5,23.5C 47.7553,26.0163 48.5886,28.3496 50,30.5C 52.0396,32.3702 53.8729,34.3702 55.5,36.5C 50.249,34.2417 47.249,30.2417 46.5,24.5C 43.4464,25.1963 40.7798,26.6963 38.5,29C 44.8593,33.8506 47.026,40.0172 45,47.5C 41.27,48.4601 37.4367,48.7935 33.5,48.5C 33.918,51.4389 35.418,53.7722 38,55.5C 38.1667,56.3333 38.3333,57.1667 38.5,58C 38.3158,59.3756 37.6491,60.2089 36.5,60.5C 36.1667,60.5 35.8333,60.5 35.5,60.5C 35.9528,59.5416 36.6195,58.7083 37.5,58C 30.8417,51.5399 29.1751,44.0399 32.5,35.5C 32.8333,35.5 33.1667,35.5 33.5,35.5C 33.7394,37.4672 33.4061,39.3005 32.5,41C 34.4727,41.4955 36.4727,41.6621 38.5,41.5C 38.3713,39.7839 38.038,38.1172 37.5,36.5C 37.8333,36.5 38.1667,36.5 38.5,36.5C 39.1174,36.6107 39.6174,36.944 40,37.5C 40.4955,39.4727 40.6621,41.4727 40.5,43.5C 38.1667,43.5 35.8333,43.5 33.5,43.5C 33.5,44.5 33.5,45.5 33.5,46.5C 45.6625,47.0512 47.8291,42.3846 40,32.5C 33.9427,27.3407 27.1094,26.174 19.5,29C 15.5657,31.4301 12.5657,34.5967 10.5,38.5C 10.5,37.8333 10.5,37.1667 10.5,36.5C 14.8851,27.3927 22.0518,24.0594 32,26.5C 35.9452,22.0521 40.7785,19.0521 46.5,17.5C 47.2798,10.5446 50.9465,5.71123 57.5,3C 60.4512,2.904 63.1178,2.07067 65.5,0.5C 68.6799,2.02178 71.6799,3.68844 74.5,5.5 Z M 33.5,35.5 C 34.9587,35.4326 36.2921,35.7659 37.5,36.5C 38.038,38.1172 38.3713,39.7839 38.5,41.5C 36.4727,41.6621 34.4727,41.4955 32.5,41C 33.4061,39.3005 33.7394,37.4672 33.5,35.5 Z"/></g>
<g><path style="opacity:0.612" fill="#e8e4e4" d="M 86.5,18.5 C 90.2725,18.8838 93.2725,20.5505 95.5,23.5C 92.331,22.0834 89.331,20.4168 86.5,18.5 Z"/></g>
<g><path style="opacity:0.996" fill="#633d41" d="M 55.5,36.5 C 53.8729,34.3702 52.0396,32.3702 50,30.5C 48.5886,28.3496 47.7553,26.0163 47.5,23.5C 49.1993,23.5271 50.5326,24.1938 51.5,25.5C 52.3382,25.8417 52.6716,26.5084 52.5,27.5C 54.7069,32.6991 56.3736,32.3658 57.5,26.5C 59.8585,24.4707 62.1918,22.4707 64.5,20.5C 68.3967,19.0901 72.3967,18.0901 76.5,17.5C 76.719,18.675 76.3857,19.675 75.5,20.5C 65.8574,21.8136 60.1908,27.1469 58.5,36.5C 57.5,36.5 56.5,36.5 55.5,36.5 Z M 57.5,26.5 C 56.6851,27.4293 55.8518,28.4293 55,29.5C 54.2917,28.6195 53.4584,27.9528 52.5,27.5C 52.6716,26.5084 52.3382,25.8417 51.5,25.5C 51.3691,24.6236 51.7025,23.9569 52.5,23.5C 54.5976,23.9572 56.2642,24.9572 57.5,26.5 Z"/></g>
<g><path style="opacity:0.15" fill="#f1eeee" d="M 74.5,11.5 C 77.46,13.8537 78.7934,17.0204 78.5,21C 78.6124,25.612 76.779,29.112 73,31.5C 71.2661,29.7098 69.7661,27.7098 68.5,25.5C 66.7869,25.8793 65.7869,26.8793 65.5,28.5C 64.1196,27.2935 62.9529,27.6269 62,29.5C 60.6591,32.022 59.8257,34.6887 59.5,37.5C 57.901,37.7678 56.5676,37.4345 55.5,36.5C 56.5,36.5 57.5,36.5 58.5,36.5C 60.1908,27.1469 65.8574,21.8136 75.5,20.5C 76.3857,19.675 76.719,18.675 76.5,17.5C 72.3967,18.0901 68.3967,19.0901 64.5,20.5C 67.5287,18.4738 70.862,16.8071 74.5,15.5C 75.3629,14.2736 75.3629,12.9403 74.5,11.5 Z M 71.5,22.5 C 73.1667,22.5 74.8333,22.5 76.5,22.5C 75.0907,31.8407 72.7574,32.3407 69.5,24C 70.4158,23.7216 71.0825,23.2216 71.5,22.5 Z"/></g>
<g><path style="opacity:0.145" fill="#ece8e8" d="M 79.5,10.5 C 81.6943,12.2214 82.861,14.5547 83,17.5C 83.3076,16.6919 83.8076,16.0253 84.5,15.5C 84.0875,16.7824 84.7542,17.7824 86.5,18.5C 85.5,18.5 84.5,18.5 83.5,18.5C 83.281,19.675 83.6143,20.675 84.5,21.5C 86.9106,22.3611 88.9106,23.6944 90.5,25.5C 87.9019,24.2276 85.4019,23.561 83,23.5C 81.8857,30.4437 78.0523,35.1104 71.5,37.5C 68.2664,35.3782 66.2664,32.3782 65.5,28.5C 67.3056,30.0894 68.6389,32.0894 69.5,34.5C 71.0745,35.6309 72.7412,35.7975 74.5,35C 81.8215,28.0733 83.4881,19.9066 79.5,10.5 Z"/></g>
<g><path style="opacity:1" fill="#e6a03f" d="M 45.5,18.5 C 49.1817,18.3347 52.8484,18.5014 56.5,19C 58.0016,19.5831 59.3349,20.4164 60.5,21.5C 60.2907,22.086 59.9574,22.586 59.5,23C 55.6028,22.0468 51.6028,21.7134 47.5,22C 43.2867,23.6104 39.2867,25.4437 35.5,27.5C 35.281,26.325 35.6143,25.325 36.5,24.5C 39.3935,22.2285 42.3935,20.2285 45.5,18.5 Z"/></g>
<g><path style="opacity:0.612" fill="#dcd3d3" d="M 57.5,26.5 C 56.3736,32.3658 54.7069,32.6991 52.5,27.5C 53.4584,27.9528 54.2917,28.6195 55,29.5C 55.8518,28.4293 56.6851,27.4293 57.5,26.5 Z"/></g>
<g><path style="opacity:1" fill="#623c3f" d="M 86.5,18.5 C 89.331,20.4168 92.331,22.0834 95.5,23.5C 96.7502,25.9324 98.2502,28.2657 100,30.5C 101.079,33.0627 101.579,35.7294 101.5,38.5C 100.167,38.5 98.8333,38.5 97.5,38.5C 97.4984,34.4885 96.3317,30.8219 94,27.5C 93.1841,26.1772 92.0174,25.5106 90.5,25.5C 88.9106,23.6944 86.9106,22.3611 84.5,21.5C 83.6143,20.675 83.281,19.675 83.5,18.5C 84.5,18.5 85.5,18.5 86.5,18.5 Z"/></g>
<g><path style="opacity:0.154" fill="#f2edee" d="M 95.5,23.5 C 100.084,24.2773 104.75,24.7773 109.5,25C 111.32,25.2004 112.653,26.0337 113.5,27.5C 108.946,25.5495 104.28,25.2162 99.5,26.5C 99.7093,27.086 100.043,27.586 100.5,28C 110.612,27.8731 116.612,32.7064 118.5,42.5C 116.447,53.9002 109.78,58.5669 98.5,56.5C 98.9802,53.9954 99.9802,51.6621 101.5,49.5C 99.9626,47.0698 98.296,47.0698 96.5,49.5C 96.5394,48.4168 96.8728,47.4168 97.5,46.5C 93.6673,45.8128 90.0006,45.4795 86.5,45.5C 90.7799,44.4604 95.1132,44.2938 99.5,45C 102.595,45.9354 104.929,47.7687 106.5,50.5C 107.82,51.9418 109.486,52.6085 111.5,52.5C 111.5,51.5 111.5,50.5 111.5,49.5C 113.774,50.9516 115.274,50.285 116,47.5C 117.586,36.342 112.753,30.342 101.5,29.5C 102.637,33.3825 102.637,37.2158 101.5,41C 103.584,41.6972 105.251,42.8639 106.5,44.5C 101.154,41.8301 95.4875,40.1634 89.5,39.5C 91.1431,36.5549 92.4764,33.5549 93.5,30.5C 92.5,30.5 91.5,30.5 90.5,30.5C 90.5774,29.2502 91.244,28.4169 92.5,28C 91.6195,27.2917 90.9528,26.4584 90.5,25.5C 92.0174,25.5106 93.1841,26.1772 94,27.5C 96.3317,30.8219 97.4984,34.4885 97.5,38.5C 98.8333,38.5 100.167,38.5 101.5,38.5C 101.579,35.7294 101.079,33.0627 100,30.5C 98.2502,28.2657 96.7502,25.9324 95.5,23.5 Z M 111.5,49.5 C 110.833,46.8333 109.167,45.1667 106.5,44.5C 105.251,42.8639 103.584,41.6972 101.5,41C 102.637,37.2158 102.637,33.3825 101.5,29.5C 112.753,30.342 117.586,36.342 116,47.5C 115.274,50.285 113.774,50.9516 111.5,49.5 Z M 94.5,34.5 C 95.968,35.7791 96.6347,37.4458 96.5,39.5C 90.5308,39.8092 89.8641,38.1426 94.5,34.5 Z M 106.5,50.5 C 106.574,52.4109 107.574,53.5776 109.5,54C 106.651,55.7273 103.651,55.894 100.5,54.5C 101.393,50.8701 103.393,49.5368 106.5,50.5 Z"/></g>
<g><path style="opacity:1" fill="#7b3a3f" d="M 90.5,30.5 C 91.5,30.5 92.5,30.5 93.5,30.5C 92.4764,33.5549 91.1431,36.5549 89.5,39.5C 95.4875,40.1634 101.154,41.8301 106.5,44.5C 107.833,46.5 109.5,48.1667 111.5,49.5C 111.5,50.5 111.5,51.5 111.5,52.5C 109.486,52.6085 107.82,51.9418 106.5,50.5C 104.929,47.7687 102.595,45.9354 99.5,45C 95.1132,44.2938 90.7799,44.4604 86.5,45.5C 86.3359,42.8127 86.5026,40.146 87,37.5C 88.1932,35.1136 89.3599,32.7802 90.5,30.5 Z"/></g>
<g><path style="opacity:0.631" fill="#ede5e5" d="M 90.5,30.5 C 89.3599,32.7802 88.1932,35.1136 87,37.5C 86.5026,40.146 86.3359,42.8127 86.5,45.5C 84.3803,39.6268 85.7137,34.6268 90.5,30.5 Z"/></g>
<g><path style="opacity:0.459" fill="#fbf9f9" d="M 106.5,44.5 C 109.167,45.1667 110.833,46.8333 111.5,49.5C 109.5,48.1667 107.833,46.5 106.5,44.5 Z"/></g>
<g><path style="opacity:1" fill="#e7a041" d="M 38.5,36.5 C 33.3997,30.419 27.0663,28.919 19.5,32C 11.5448,38.6026 10.5448,46.1026 16.5,54.5C 16.1667,55.5 15.5,56.1667 14.5,56.5C 9.76184,51.2698 8.42851,45.2698 10.5,38.5C 12.5657,34.5967 15.5657,31.4301 19.5,29C 27.1094,26.174 33.9427,27.3407 40,32.5C 47.8291,42.3846 45.6625,47.0512 33.5,46.5C 33.5,45.5 33.5,44.5 33.5,43.5C 35.8333,43.5 38.1667,43.5 40.5,43.5C 40.6621,41.4727 40.4955,39.4727 40,37.5C 39.6174,36.944 39.1174,36.6107 38.5,36.5 Z M 33.5,35.5 C 34.9587,35.4326 36.2921,35.7659 37.5,36.5C 38.038,38.1172 38.3713,39.7839 38.5,41.5C 36.4727,41.6621 34.4727,41.4955 32.5,41C 33.4061,39.3005 33.7394,37.4672 33.5,35.5 Z"/></g>
<g><path style="opacity:0.153" fill="#f6f2f2" d="M 113.5,27.5 C 117.884,29.3935 120.718,32.7269 122,37.5C 122.667,40.8333 122.667,44.1667 122,47.5C 121.576,50.0254 120.41,52.0254 118.5,53.5C 123.508,43.5445 121.841,34.8778 113.5,27.5 Z"/></g>
<g><path style="opacity:0.099" fill="#f6f7f6" d="M 27.5,37.5 C 27.5,37.8333 27.5,38.1667 27.5,38.5C 27.3354,41.5184 27.502,44.5184 28,47.5C 29.1818,51.1882 30.3484,54.8548 31.5,58.5C 28.5,58.5 25.5,58.5 22.5,58.5C 22.1547,61.488 23.488,62.8213 26.5,62.5C 29.5123,61.8278 32.5123,61.1611 35.5,60.5C 35.8333,60.5 36.1667,60.5 36.5,60.5C 35.653,61.9663 34.3197,62.7996 32.5,63C 28.5138,63.4988 24.5138,63.6655 20.5,63.5C 20.1866,66.2469 20.52,68.9135 21.5,71.5C 23.7754,70.8926 26.1088,70.5593 28.5,70.5C 31.5267,70.2865 34.1934,70.9532 36.5,72.5C 29.3342,70.4812 22.6676,71.4812 16.5,75.5C 15.8902,74.609 15.5569,73.609 15.5,72.5C 15.5,71.8333 15.5,71.1667 15.5,70.5C 16.1002,73.6247 17.2669,73.958 19,71.5C 17.4786,63.8975 19.6452,57.5641 25.5,52.5C 26.4345,51.4324 26.7678,50.099 26.5,48.5C 25.5,48.5 24.5,48.5 23.5,48.5C 25.7918,45.1924 27.1252,41.5257 27.5,37.5 Z M 26.5,54.5 C 27.9221,54.7496 28.9221,55.583 29.5,57C 26.457,57.8625 25.457,57.0291 26.5,54.5 Z"/></g>
<g><path style="opacity:1" fill="#e89f3c" d="M 32.5,35.5 C 29.1751,44.0399 30.8417,51.5399 37.5,58C 36.6195,58.7083 35.9528,59.5416 35.5,60.5C 32.5123,61.1611 29.5123,61.8278 26.5,62.5C 23.488,62.8213 22.1547,61.488 22.5,58.5C 25.5,58.5 28.5,58.5 31.5,58.5C 30.3484,54.8548 29.1818,51.1882 28,47.5C 27.502,44.5184 27.3354,41.5184 27.5,38.5C 28.2105,36.5876 29.3771,34.921 31,33.5C 32.0299,33.8361 32.5299,34.5028 32.5,35.5 Z"/></g>
<g><path style="opacity:0.702" fill="#e7dfdf" d="M 96.5,49.5 C 96.2503,51.674 95.2503,53.3406 93.5,54.5C 93.7497,52.326 94.7497,50.6594 96.5,49.5 Z"/></g>
<g><path style="opacity:0.863" fill="#96adc4" d="M 23.5,48.5 C 24.5,48.5 25.5,48.5 26.5,48.5C 26.7678,50.099 26.4345,51.4324 25.5,52.5C 25.0919,51.3569 24.4252,50.3569 23.5,49.5C 22.1482,50.5244 20.8149,51.5244 19.5,52.5C 19.5,52.1667 19.5,51.8333 19.5,51.5C 20.2623,49.7376 21.5956,48.7376 23.5,48.5 Z"/></g>
<g><path style="opacity:0.172" fill="#faf7f3" d="M 38.5,36.5 C 38.1667,36.5 37.8333,36.5 37.5,36.5C 36.2921,35.7659 34.9587,35.4326 33.5,35.5C 33.1667,35.5 32.8333,35.5 32.5,35.5C 32.5299,34.5028 32.0299,33.8361 31,33.5C 29.3771,34.921 28.2105,36.5876 27.5,38.5C 27.5,38.1667 27.5,37.8333 27.5,37.5C 27.5,35.8333 27.5,34.1667 27.5,32.5C 18.4033,33.4277 14.2366,38.4277 15,47.5C 15.3603,49.4211 16.1936,51.0878 17.5,52.5C 18.1835,52.1373 18.8501,51.8039 19.5,51.5C 19.5,51.8333 19.5,52.1667 19.5,52.5C 15.967,57.9505 14.6337,63.9505 15.5,70.5C 15.5,71.1667 15.5,71.8333 15.5,72.5C 14.6745,68.0181 14.1745,63.3514 14,58.5C 7.80544,51.7353 6.63877,44.402 10.5,36.5C 10.5,37.1667 10.5,37.8333 10.5,38.5C 8.42851,45.2698 9.76184,51.2698 14.5,56.5C 15.5,56.1667 16.1667,55.5 16.5,54.5C 10.5448,46.1026 11.5448,38.6026 19.5,32C 27.0663,28.919 33.3997,30.419 38.5,36.5 Z"/></g>
<g><path style="opacity:0.769" fill="#dcced0" d="M 93.5,54.5 C 94.2485,56.3325 95.2485,57.9991 96.5,59.5C 94.2988,59.1416 92.9655,57.8083 92.5,55.5C 92.6236,54.8933 92.9569,54.56 93.5,54.5 Z"/></g>
<g><path style="opacity:1" fill="#78393f" d="M 113.5,27.5 C 121.841,34.8778 123.508,43.5445 118.5,53.5C 112.369,59.7639 105.036,61.7639 96.5,59.5C 95.2485,57.9991 94.2485,56.3325 93.5,54.5C 95.2503,53.3406 96.2503,51.674 96.5,49.5C 98.296,47.0698 99.9626,47.0698 101.5,49.5C 99.9802,51.6621 98.9802,53.9954 98.5,56.5C 109.78,58.5669 116.447,53.9002 118.5,42.5C 116.612,32.7064 110.612,27.8731 100.5,28C 100.043,27.586 99.7093,27.086 99.5,26.5C 104.28,25.2162 108.946,25.5495 113.5,27.5 Z M 106.5,50.5 C 103.393,49.5368 101.393,50.8701 100.5,54.5C 103.651,55.894 106.651,55.7273 109.5,54C 107.574,53.5776 106.574,52.4109 106.5,50.5 Z"/></g>
<g><path style="opacity:1" fill="#195997" d="M 25.5,52.5 C 19.6452,57.5641 17.4786,63.8975 19,71.5C 17.2669,73.958 16.1002,73.6247 15.5,70.5C 14.6337,63.9505 15.967,57.9505 19.5,52.5C 20.8149,51.5244 22.1482,50.5244 23.5,49.5C 24.4252,50.3569 25.0919,51.3569 25.5,52.5 Z"/></g>
<g><path style="opacity:0.085" fill="#f7f5f4" d="M 118.5,53.5 C 118.297,55.0443 117.63,56.3777 116.5,57.5C 117.309,59.0709 117.643,60.7376 117.5,62.5C 117.795,64.7354 117.461,66.7354 116.5,68.5C 116.665,65.4816 116.498,62.4816 116,59.5C 115.333,58.1667 114.667,58.1667 114,59.5C 114.958,68.4842 112.124,75.8175 105.5,81.5C 105.167,81.5 104.833,81.5 104.5,81.5C 103.461,79.0987 102.127,76.7654 100.5,74.5C 100.957,73.7025 101.624,73.3691 102.5,73.5C 104.833,73.5 107.167,73.5 109.5,73.5C 109.737,72.209 109.404,71.209 108.5,70.5C 105.219,69.372 101.885,69.372 98.5,70.5C 98.1667,70.5 97.8333,70.5 97.5,70.5C 101.919,68.3276 106.586,67.9942 111.5,69.5C 114.581,61.4156 112.081,58.749 104,61.5C 101.179,61.5922 98.6789,60.9256 96.5,59.5C 105.036,61.7639 112.369,59.7639 118.5,53.5 Z"/></g>
<g><path style="opacity:0.167" fill="#edf2f6" d="M 22.5,76.5 C 22.8333,77.1667 23.1667,77.8333 23.5,78.5C 22.3569,78.9081 21.3569,79.5748 20.5,80.5C 22.5227,82.8528 24.5227,85.1862 26.5,87.5C 22.8016,85.8017 20.1349,83.135 18.5,79.5C 18.5,79.1667 18.5,78.8333 18.5,78.5C 19.6049,77.3995 20.9382,76.7329 22.5,76.5 Z"/></g>
<g><path style="opacity:0.151" fill="#ecf0f5" d="M 37.5,73.5 C 40.1667,75.5 40.1667,77.5 37.5,79.5C 38.8333,77.5 38.8333,75.5 37.5,73.5 Z"/></g>
<g><path style="opacity:0.091" fill="#f7f9f4" d="M 117.5,62.5 C 118.254,65.0227 118.92,67.6894 119.5,70.5C 118.975,71.1924 118.308,71.6924 117.5,72C 125.406,79.8795 126.573,88.7128 121,98.5C 115.284,104.853 108.118,107.686 99.5,107C 96.8607,109.483 93.8607,111.316 90.5,112.5C 89.8333,112.5 89.1667,112.5 88.5,112.5C 91.7673,110.573 94.7673,108.239 97.5,105.5C 96.675,104.614 95.675,104.281 94.5,104.5C 95.1667,103.833 95.8333,103.167 96.5,102.5C 114.779,107.389 123.279,100.389 122,81.5C 121.218,78.9242 119.718,76.9242 117.5,75.5C 116.686,77.9515 117.186,80.2849 119,82.5C 120.343,95.4901 114.509,101.657 101.5,101C 95.434,99.0412 92.1007,94.8745 91.5,88.5C 93.8333,88.5 96.1667,88.5 98.5,88.5C 99.4345,87.4324 99.7678,86.099 99.5,84.5C 95.9581,84.1872 92.6248,84.5206 89.5,85.5C 87.9456,90.0416 88.6123,94.375 91.5,98.5C 91.1667,98.5 90.8333,98.5 90.5,98.5C 86.835,94.9611 85.6683,90.6278 87,85.5C 87.5,85 88,84.5 88.5,84C 91.8818,83.8236 95.2152,83.3236 98.5,82.5C 97.0166,79.5265 95.3499,76.6931 93.5,74C 94.0717,71.9264 95.405,70.7598 97.5,70.5C 97.8333,70.5 98.1667,70.5 98.5,70.5C 97.0707,71.2342 96.0707,72.4009 95.5,74C 97.7118,76.5537 99.5452,79.387 101,82.5C 101.087,87.8922 101.253,93.2256 101.5,98.5C 102.934,96.7801 103.767,94.7801 104,92.5C 104.499,88.8484 104.665,85.1817 104.5,81.5C 104.833,81.5 105.167,81.5 105.5,81.5C 105.973,82.9063 106.973,83.573 108.5,83.5C 110.127,81.3702 111.96,79.3702 114,77.5C 115.549,74.6883 116.382,71.6883 116.5,68.5C 117.461,66.7354 117.795,64.7354 117.5,62.5 Z M 108.5,83.5 C 110.017,83.4894 111.184,82.8228 112,81.5C 112.333,82.1667 112.667,82.8333 113,83.5C 113.689,82.6433 114.522,81.9767 115.5,81.5C 119.429,87.6063 118.429,93.1063 112.5,98C 110.203,98.0178 107.869,97.8511 105.5,97.5C 105.804,94.4781 106.304,91.4781 107,88.5C 107.5,86.6667 108.667,85.5 110.5,85C 109.584,84.7216 108.918,84.2216 108.5,83.5 Z M 93.5,92.5 C 95.3635,91.2072 97.3635,91.2072 99.5,92.5C 98.846,94.1151 98.346,95.7818 98,97.5C 96.3831,96.4642 96.2164,95.2975 97.5,94C 96.0993,93.5899 94.766,93.0899 93.5,92.5 Z"/></g>
<g><path style="opacity:0.749" fill="#c2d9ad" d="M 108.5,70.5 C 109.404,71.209 109.737,72.209 109.5,73.5C 107.167,73.5 104.833,73.5 102.5,73.5C 104.844,73.0603 106.844,72.0603 108.5,70.5 Z"/></g>
<g><path style="opacity:1" fill="#7a3c3e" d="M 116.5,68.5 C 116.382,71.6883 115.549,74.6883 114,77.5C 111.96,79.3702 110.127,81.3702 108.5,83.5C 106.973,83.573 105.973,82.9063 105.5,81.5C 112.124,75.8175 114.958,68.4842 114,59.5C 114.667,58.1667 115.333,58.1667 116,59.5C 116.498,62.4816 116.665,65.4816 116.5,68.5 Z"/></g>
<g><path style="opacity:1" fill="#6e8cb5" d="M 16.5,75.5 C 16.2852,77.1788 16.9519,78.1788 18.5,78.5C 18.5,78.8333 18.5,79.1667 18.5,79.5C 18.0679,80.7095 17.4013,81.7095 16.5,82.5C 16.1667,82.5 15.8333,82.5 15.5,82.5C 15.3678,79.9931 14.3678,79.3264 12.5,80.5C 13.0798,78.2512 14.4131,76.5846 16.5,75.5 Z"/></g>
<g><path style="opacity:0.037" fill="#eff3f7" d="M 37.5,79.5 C 36.4647,81.205 36.4647,82.8716 37.5,84.5C 36.8333,84.8333 36.1667,85.1667 35.5,85.5C 39.177,87.0278 42.3437,86.3611 45,83.5C 45.7914,84.745 46.2914,86.0783 46.5,87.5C 41.5228,87.8894 36.5228,87.3894 31.5,86C 27.6561,84.6533 24.9894,82.1533 23.5,78.5C 24.8333,79.5 26.1667,80.5 27.5,81.5C 29.2904,80.2392 30.9571,78.7392 32.5,77C 31.3914,76.3623 30.2247,75.8623 29,75.5C 26.9011,76.2865 24.7345,76.6199 22.5,76.5C 22.9175,75.7784 23.5842,75.2784 24.5,75C 33.3665,72.6774 35.3665,75.1774 30.5,82.5C 30.8869,83.7199 31.7202,84.3865 33,84.5C 34.5093,82.7935 36.0093,81.1268 37.5,79.5 Z M 27.5,81.5 C 29.0281,81.5173 29.5281,82.184 29,83.5C 28.2828,82.9558 27.7828,82.2891 27.5,81.5 Z"/></g>
<g><path style="opacity:1" fill="#1c5b97" d="M 36.5,72.5 C 37.1667,72.5 37.5,72.8333 37.5,73.5C 38.8333,75.5 38.8333,77.5 37.5,79.5C 36.0093,81.1268 34.5093,82.7935 33,84.5C 31.7202,84.3865 30.8869,83.7199 30.5,82.5C 35.3665,75.1774 33.3665,72.6774 24.5,75C 23.5842,75.2784 22.9175,75.7784 22.5,76.5C 20.9382,76.7329 19.6049,77.3995 18.5,78.5C 16.9519,78.1788 16.2852,77.1788 16.5,75.5C 22.6676,71.4812 29.3342,70.4812 36.5,72.5 Z"/></g>
<g><path style="opacity:1" fill="#82b957" d="M 108.5,70.5 C 106.844,72.0603 104.844,73.0603 102.5,73.5C 101.624,73.3691 100.957,73.7025 100.5,74.5C 102.127,76.7654 103.461,79.0987 104.5,81.5C 104.665,85.1817 104.499,88.8484 104,92.5C 103.767,94.7801 102.934,96.7801 101.5,98.5C 101.253,93.2256 101.087,87.8922 101,82.5C 99.5452,79.387 97.7118,76.5537 95.5,74C 96.0707,72.4009 97.0707,71.2342 98.5,70.5C 101.885,69.372 105.219,69.372 108.5,70.5 Z"/></g>
<g><path style="opacity:0.093" fill="#f6f8fb" d="M 15.5,82.5 C 15.8333,82.5 16.1667,82.5 16.5,82.5C 16.1751,87.1493 16.1751,91.4827 16.5,95.5C 14.2024,91.4537 13.869,87.1204 15.5,82.5 Z"/></g>
<g><path style="opacity:0.816" fill="#b7cfa3" d="M 89.5,85.5 C 92.6248,84.5206 95.9581,84.1872 99.5,84.5C 99.7678,86.099 99.4345,87.4324 98.5,88.5C 98.5,87.5 98.5,86.5 98.5,85.5C 95.5,85.5 92.5,85.5 89.5,85.5 Z"/></g>
<g><path style="opacity:1" fill="#205d96" d="M 23.5,78.5 C 24.9894,82.1533 27.6561,84.6533 31.5,86C 36.5228,87.3894 41.5228,87.8894 46.5,87.5C 46.7488,93.6707 44.4155,98.3374 39.5,101.5C 39.1961,100.85 38.8627,100.183 38.5,99.5C 40.0862,97.3295 41.4196,94.9962 42.5,92.5C 36.8927,91.6304 31.5593,89.9638 26.5,87.5C 24.5227,85.1862 22.5227,82.8528 20.5,80.5C 21.3569,79.5748 22.3569,78.9081 23.5,78.5 Z"/></g>
<g><path style="opacity:1" fill="#1f5d96" d="M 15.5,82.5 C 13.869,87.1204 14.2024,91.4537 16.5,95.5C 17.1667,98.1667 18.8333,99.8333 21.5,100.5C 21.6107,101.117 21.944,101.617 22.5,102C 26.3214,102.686 29.988,103.686 33.5,105C 28.7937,106.879 24.1271,106.712 19.5,104.5C 18.7377,102.738 17.4044,101.738 15.5,101.5C 11.4525,95.0233 10.4525,88.0233 12.5,80.5C 14.3678,79.3264 15.3678,79.9931 15.5,82.5 Z"/></g>
<g><path style="opacity:0.077" fill="#eef4f4" d="M 26.5,87.5 C 31.5593,89.9638 36.8927,91.6304 42.5,92.5C 41.4196,94.9962 40.0862,97.3295 38.5,99.5C 38.8627,100.183 39.1961,100.85 39.5,101.5C 38.8333,101.5 38.5,101.833 38.5,102.5C 37.2101,101.942 36.3768,100.942 36,99.5C 35.5034,97.1902 35.3367,94.8568 35.5,92.5C 34.1667,92.5 32.8333,92.5 31.5,92.5C 31.8531,102.186 36.5198,108.853 45.5,112.5C 44.8333,112.5 44.1667,112.5 43.5,112.5C 39.9922,111.337 36.9922,109.337 34.5,106.5C 30.8922,107.593 27.2255,107.76 23.5,107C 21.6803,106.8 20.347,105.966 19.5,104.5C 24.1271,106.712 28.7937,106.879 33.5,105C 29.988,103.686 26.3214,102.686 22.5,102C 21.944,101.617 21.6107,101.117 21.5,100.5C 24.7786,101.492 28.1119,101.659 31.5,101C 30.8333,100.667 30.1667,100.333 29.5,100C 29.6196,97.2111 29.9529,94.3777 30.5,91.5C 29.1335,90.16 27.8001,88.8267 26.5,87.5 Z"/></g>
<g><path style="opacity:1" fill="#83b859" d="M 96.5,102.5 C 94.8333,101.167 93.1667,99.8333 91.5,98.5C 88.6123,94.375 87.9456,90.0416 89.5,85.5C 92.5,85.5 95.5,85.5 98.5,85.5C 98.5,86.5 98.5,87.5 98.5,88.5C 96.1667,88.5 93.8333,88.5 91.5,88.5C 92.1007,94.8745 95.434,99.0412 101.5,101C 114.509,101.657 120.343,95.4901 119,82.5C 117.186,80.2849 116.686,77.9515 117.5,75.5C 119.718,76.9242 121.218,78.9242 122,81.5C 123.279,100.389 114.779,107.389 96.5,102.5 Z M 93.5,92.5 C 94.766,93.0899 96.0993,93.5899 97.5,94C 96.2164,95.2975 96.3831,96.4642 98,97.5C 98.346,95.7818 98.846,94.1151 99.5,92.5C 97.3635,91.2072 95.3635,91.2072 93.5,92.5 Z"/></g>
<g><path style="opacity:0.153" fill="#e3eaef" d="M 12.5,80.5 C 10.4525,88.0233 11.4525,95.0233 15.5,101.5C 11.7974,98.2586 9.79738,94.0919 9.5,89C 9.82784,85.813 10.8278,82.9797 12.5,80.5 Z"/></g>
<g><path style="opacity:0.087" fill="#f9fcf9" d="M 76.5,95.5 C 76.5,95.1667 76.5,94.8333 76.5,94.5C 78.9013,95.0488 81.2346,95.8822 83.5,97C 83.1667,97.3333 82.8333,97.6667 82.5,98C 84.3083,101.03 86.9749,102.863 90.5,103.5C 89.4937,104.396 89.4937,105.062 90.5,105.5C 91.646,104.855 92.646,104.022 93.5,103C 91.6243,102.082 90.6243,100.582 90.5,98.5C 90.8333,98.5 91.1667,98.5 91.5,98.5C 93.1667,99.8333 94.8333,101.167 96.5,102.5C 95.8333,103.167 95.1667,103.833 94.5,104.5C 88.2971,109.737 81.4638,110.737 74,107.5C 73.6174,108.056 73.1174,108.389 72.5,108.5C 72.5,108.167 72.5,107.833 72.5,107.5C 75.8839,98.2735 78.8839,98.2735 81.5,107.5C 82.9778,107.762 84.3112,107.429 85.5,106.5C 84.132,101.395 81.132,97.728 76.5,95.5 Z M 77.5,107.5 C 78.0768,106.227 78.7435,106.227 79.5,107.5C 79.0302,108.463 78.3635,108.463 77.5,107.5 Z"/></g>
<g><path style="opacity:0.075" fill="#e6edf4" d="M 16.5,95.5 C 18.5,96.8333 20.1667,98.5 21.5,100.5C 18.8333,99.8333 17.1667,98.1667 16.5,95.5 Z"/></g>
<g><path style="opacity:1" fill="#289a5d" d="M 76.5,95.5 C 81.132,97.728 84.132,101.395 85.5,106.5C 84.3112,107.429 82.9778,107.762 81.5,107.5C 78.8839,98.2735 75.8839,98.2735 72.5,107.5C 67.719,110.873 62.3857,112.873 56.5,113.5C 56.5,112.5 56.5,111.5 56.5,110.5C 58.7857,110.405 60.7857,109.738 62.5,108.5C 69.4164,106.917 73.083,102.584 73.5,95.5C 74.5,95.5 75.5,95.5 76.5,95.5 Z"/></g>
<g><path style="opacity:0.071" fill="#f1f8f4" d="M 76.5,94.5 C 76.5,94.8333 76.5,95.1667 76.5,95.5C 75.5,95.5 74.5,95.5 73.5,95.5C 73.083,102.584 69.4164,106.917 62.5,108.5C 60.7857,109.738 58.7857,110.405 56.5,110.5C 56.5,111.5 56.5,112.5 56.5,113.5C 62.3857,112.873 67.719,110.873 72.5,107.5C 72.5,107.833 72.5,108.167 72.5,108.5C 72.5608,111.05 73.8941,112.55 76.5,113C 78.8098,113.497 81.1432,113.663 83.5,113.5C 83.5,113.833 83.5,114.167 83.5,114.5C 81.3136,115.823 79.8136,117.823 79,120.5C 78.3292,121.252 77.4959,121.586 76.5,121.5C 75.9423,122.79 74.9423,123.623 73.5,124C 62.123,126.454 55.4563,121.954 53.5,110.5C 53.6854,105.793 55.6854,102.126 59.5,99.5C 61.4986,101.493 62.9986,103.827 64,106.5C 65.1581,106.002 65.9915,105.169 66.5,104C 65.4303,101.194 64.097,98.5272 62.5,96C 59.9047,95.3996 57.5713,95.8996 55.5,97.5C 57.396,94.7397 60.0626,93.9063 63.5,95C 65.2194,96.9302 67.0527,98.7635 69,100.5C 70.87,98.5947 72.37,96.4281 73.5,94C 74.7494,93.2599 75.7494,93.4265 76.5,94.5 Z M 62.5,108.5 C 53.9566,110.007 53.6233,109.34 61.5,106.5C 62.2975,106.957 62.6309,107.624 62.5,108.5 Z M 76.5,121.5 C 71.5993,123.902 66.5993,124.069 61.5,122C 59.5359,120.549 58.2026,118.716 57.5,116.5C 61.3162,114.945 65.1495,113.278 69,111.5C 72.2922,113.562 75.7922,115.229 79.5,116.5C 78.7401,118.36 77.7401,120.027 76.5,121.5 Z"/></g>
<g><path style="opacity:0.125" fill="#dde6ed" d="M 15.5,101.5 C 17.4044,101.738 18.7377,102.738 19.5,104.5C 17.5956,104.262 16.2623,103.262 15.5,101.5 Z"/></g>
<g><path style="opacity:1" fill="#269b5a" d="M 38.5,102.5 C 40.5976,105.924 43.5976,108.257 47.5,109.5C 48.3857,110.325 48.719,111.325 48.5,112.5C 47.5,112.5 46.5,112.5 45.5,112.5C 36.5198,108.853 31.8531,102.186 31.5,92.5C 32.8333,92.5 34.1667,92.5 35.5,92.5C 35.3367,94.8568 35.5034,97.1902 36,99.5C 36.3768,100.942 37.2101,101.942 38.5,102.5 Z"/></g>
<g><path style="opacity:1" fill="#8bbe68" d="M 94.5,104.5 C 95.675,104.281 96.675,104.614 97.5,105.5C 94.7673,108.239 91.7673,110.573 88.5,112.5C 86.7839,112.629 85.1172,112.962 83.5,113.5C 81.1432,113.663 78.8098,113.497 76.5,113C 73.8941,112.55 72.5608,111.05 72.5,108.5C 73.1174,108.389 73.6174,108.056 74,107.5C 81.4638,110.737 88.2971,109.737 94.5,104.5 Z"/></g>
<g><path style="opacity:1" fill="#279b5d" d="M 76.5,121.5 C 77.4959,121.586 78.3292,121.252 79,120.5C 79.8136,117.823 81.3136,115.823 83.5,114.5C 83.7631,120.487 80.7631,124.653 74.5,127C 57.8277,129.665 49.9944,122.499 51,105.5C 52.3277,102.688 53.8277,100.022 55.5,97.5C 57.5713,95.8996 59.9047,95.3996 62.5,96C 64.097,98.5272 65.4303,101.194 66.5,104C 65.9915,105.169 65.1581,106.002 64,106.5C 62.9986,103.827 61.4986,101.493 59.5,99.5C 55.6854,102.126 53.6854,105.793 53.5,110.5C 55.4563,121.954 62.123,126.454 73.5,124C 74.9423,123.623 75.9423,122.79 76.5,121.5 Z"/></g>
<g><path style="opacity:0.08" fill="#f7fbf9" d="M 46.5,87.5 C 47.6408,90.6399 47.8075,93.9733 47,97.5C 45.8623,100.055 44.5289,102.722 43,105.5C 44.9124,106.692 46.9124,107.692 49,108.5C 49.4561,107.256 48.9561,106.423 47.5,106C 50.5754,103.789 52.2421,101.122 52.5,98C 53.448,97.5172 54.448,97.3505 55.5,97.5C 53.8277,100.022 52.3277,102.688 51,105.5C 49.9944,122.499 57.8277,129.665 74.5,127C 80.7631,124.653 83.7631,120.487 83.5,114.5C 83.5,114.167 83.5,113.833 83.5,113.5C 85.1172,112.962 86.7839,112.629 88.5,112.5C 89.1667,112.5 89.8333,112.5 90.5,112.5C 89.3117,113.364 88.1451,114.364 87,115.5C 80.5454,129.541 70.3787,133.041 56.5,126C 53.4565,123.407 51.2899,120.24 50,116.5C 47.8269,115.067 45.6602,113.734 43.5,112.5C 44.1667,112.5 44.8333,112.5 45.5,112.5C 46.5,112.5 47.5,112.5 48.5,112.5C 48.719,111.325 48.3857,110.325 47.5,109.5C 43.5976,108.257 40.5976,105.924 38.5,102.5C 38.5,101.833 38.8333,101.5 39.5,101.5C 44.4155,98.3374 46.7488,93.6707 46.5,87.5 Z"/></g>
</svg>
