<svg width="377.075px" height="121.2000030517578px" xmlns="http://www.w3.org/2000/svg" viewBox="61.462500000000006 14.399998474121098 377.075 121.2000030517578" style="background: rgba(0, 0, 0, 0);" preserveAspectRatio="xMidYMid"><defs><filter id="editing-raise" x="-100%" y="-100%" width="300%" height="300%"><feFlood flood-color="#ccc" result="flood-surface"></feFlood><feFlood flood-color="#777" result="flood-extrude"></feFlood><feMorphology operator="erode" in="SourceAlpha" radius="1" result="erode"></feMorphology><feConvolveMatrix in="erode" result="shadow" order="11,8" divisor="1" kernelMatrix="0 0 0 1 1 1 1 1 0 0 0 0 0 1 0 0 0 0 0 1 0 0 0 0 1 0 0 0 0 0 1 0 0 0 0 1 0 0 0 0 0 1 0 0 0 0 1 0 0 0 0 0 1 0 0 0 0 0 1 0 0 0 1 0 0 0 0 0 0 1 1 0 1 1 0 0 0 0 0 0 0 0 1 0 0 0 0 0"></feConvolveMatrix><feOffset dx="0" dy="4" in="shadow" result="offset"></feOffset><feGaussianBlur in="offset" stdDeviation="0.2" result="blur"></feGaussianBlur><feComposite operator="in" in="flood-extrude" in2="blur" result="extrude"></feComposite><feMorphology operator="erode" in="SourceAlpha" radius="1" result="erode2"></feMorphology><feConvolveMatrix in="erode2" result="out" order="4,4" divisor="1" kernelMatrix="0 1 1 0 1 0 0 1 1 0 0 1 0 1 1 0 "></feConvolveMatrix><feComposite operator="in" in="flood-surface" in2="out" result="text"></feComposite><feMerge><feMergeNode in="extrude"></feMergeNode><feMergeNode in="text"></feMergeNode></feMerge></filter></defs><g filter="url(#editing-raise)"><g transform="translate(120.73676884174347, 97.46499633789062)"><path d="M6.53 0L-0.83 0L10.75-42.24L24.13-42.24L27.07-18.11L38.98-42.24L50.18-42.24L51.33-10.62L51.33-10.62Q51.58-4.35 54.66-2.43L54.66-2.43L54.66-2.43Q53.95-1.15 51.90 0.06L51.90 0.06L51.90 0.06Q49.86 1.28 47.14 1.28L47.14 1.28L47.14 1.28Q44.42 1.28 42.82 0.51L42.82 0.51L42.82 0.51Q41.22-0.26 40.32-1.54L40.32-1.54L40.32-1.54Q38.72-3.84 38.72-8.26L38.72-8.26L38.72-28.03L26.11 0L18.18 0L13.70-28.74L6.53 0ZM62.53-31.17L62.53-31.17L62.53-31.17Q60.35-32.83 60.35-36.38L60.35-36.38L60.35-36.38Q60.35-39.94 62.69-41.79L62.69-41.79L62.69-41.79Q65.02-43.65 69.06-43.65L69.06-43.65L69.06-43.65Q71.62-43.65 77.70-42.75L77.70-42.75L82.05-42.11L82.05-42.11Q84.22-41.86 86.50-41.86L86.50-41.86L86.50-41.86Q88.77-41.86 90.30-42.82L90.30-42.82L90.30-42.82Q92.61-40.77 92.61-37.82L92.61-37.82L92.61-37.82Q92.61-34.88 89.98-32.77L89.98-32.77L89.98-32.77Q87.30-30.53 83.84-30.53L83.84-30.53L83.84-30.53Q82.18-30.53 79.49-30.98L79.49-30.98L79.49-30.98Q76.35-21.12 76.35-14.27L76.35-14.27L76.35-14.27Q76.35-7.42 79.81-3.84L79.81-3.84L79.81-3.84Q78.21-0.96 75.84 0.16L75.84 0.16L75.84 0.16Q73.47 1.28 69.92 1.28L69.92 1.28L69.92 1.28Q66.37 1.28 64.16-0.67L64.16-0.67L64.16-0.67Q61.95-2.62 61.95-6.66L61.95-6.66L61.95-6.66Q61.95-11.33 64.51-19.01L64.51-19.01L64.51-19.01Q67.07-26.62 70.91-32.45L70.91-32.45L70.91-32.45Q69.06-32.64 67.14-32.64L67.14-32.64L67.14-32.64Q63.17-32.64 62.53-31.17ZM103.62 0L89.98 0L97.28-38.91L97.98-42.24L111.68-42.24L103.62 0ZM129.60-3.78L129.60-3.78L129.60-3.78Q127.87 1.28 121.22 1.28L121.22 1.28L121.22 1.28Q116.29 1.28 112.90-4.61L112.90-4.61L112.90-4.61Q109.44-10.50 108.80-20.10L108.80-20.10L108.80-20.10Q115.84-32.96 120.70-38.27L120.70-38.27L120.70-38.27Q125.38-43.33 130.24-43.33L130.24-43.33L130.24-43.33Q132.86-43.33 134.75-41.92L134.75-41.92L134.75-41.92Q136.64-40.51 137.09-38.27L137.09-38.27L137.09-38.27Q134.91-37.38 133.89-36.67L133.89-36.67L133.89-36.67Q131.33-34.75 127.87-30.46L127.87-30.46L122.05-23.49L122.05-23.49Q120.64-21.82 120.06-21.06L120.06-21.06L120.06-21.06Q121.02-15.68 123.90-10.37L123.90-10.37L123.90-10.37Q126.66-5.31 129.60-3.78ZM163.14 1.28L163.14 1.28L163.14 1.28Q154.94 1.28 154.18-10.37L154.18-10.37L143.17-10.37L143.17-10.37Q141.89-7.42 140.99-4.86L140.99-4.86L139.33 0L130.37 0L150.53-42.24L164.29-42.24L166.98-11.14L166.98-11.14Q167.62-4.42 170.18-2.43L170.18-2.43L170.18-2.43Q168.32 1.28 163.14 1.28ZM148.67-23.17L145.15-15.04L153.98-15.04L153.22-31.49L153.22-33.22L148.67-23.17ZM179.33 0L171.97 0L183.55-42.24L196.93-42.24L199.87-18.11L211.78-42.24L222.98-42.24L224.13-10.62L224.13-10.62Q224.38-4.35 227.46-2.43L227.46-2.43L227.46-2.43Q226.75-1.15 224.70 0.06L224.70 0.06L224.70 0.06Q222.66 1.28 219.94 1.28L219.94 1.28L219.94 1.28Q217.22 1.28 215.62 0.51L215.62 0.51L215.62 0.51Q214.02-0.26 213.12-1.54L213.12-1.54L213.12-1.54Q211.52-3.84 211.52-8.26L211.52-8.26L211.52-28.03L198.91 0L190.98 0L186.50-28.74L179.33 0ZM256.96-9.86L256.96-9.86L256.96-9.86Q258.18-8.32 258.18-5.34L258.18-5.34L258.18-5.34Q258.18-2.37 255.90-0.54L255.90-0.54L255.90-0.54Q253.63 1.28 249.66 1.28L249.66 1.28L249.66 1.28Q247.36 1.28 243.78 0.77L243.78 0.77L243.78 0.77Q236.74-0.32 234.72-0.32L234.72-0.32L234.72-0.32Q232.70-0.32 231.87-0.22L231.87-0.22L231.87-0.22Q231.04-0.13 229.70 0L229.70 0L237.44-42.24L251.46-42.24L245.06-7.04L245.06-7.04Q245.89-6.91 246.66-6.91L246.66-6.91L248.26-6.91L248.26-6.91Q253.63-6.91 256.96-9.86Z"></path></g></g><style>text {
  font-size: 64px;
  font-family: Arial Black;
  dominant-baseline: central;
  text-anchor: middle;
}</style></svg>